<?xml version="1.0" standalone="no"?>
<!DOCTYPE svg PUBLIC "-//W3C//DTD SVG 20010904//EN"
 "http://www.w3.org/TR/2001/REC-SVG-20010904/DTD/svg10.dtd">
<svg version="1.0" xmlns="http://www.w3.org/2000/svg"
 width="3840.000000pt" height="808.000000pt" viewBox="0 0 3840.000000 808.000000"
 preserveAspectRatio="xMidYMid meet">

<g transform="translate(0.000000,808.000000) scale(0.100000,-0.100000)"
fill="#e0004d" stroke="none">
<path d="M7250 7354 c-215 -33 -371 -93 -530 -205 -319 -225 -504 -631 -461
-1014 51 -449 346 -817 767 -954 120 -39 218 -54 349 -54 131 0 229 15 347 54
423 137 722 510 769 958 61 586 -371 1128 -965 1210 -73 10 -221 13 -276 5z
m269 -529 c144 -34 287 -136 369 -264 59 -90 83 -168 89 -286 10 -184 -47
-328 -181 -460 -89 -87 -167 -133 -277 -161 -88 -23 -260 -15 -346 16 -170 59
-316 207 -375 378 -19 56 -23 87 -23 192 0 105 4 135 24 190 68 192 238 348
428 394 77 19 213 19 292 1z"/>
<path d="M223 6668 c4 -672 4 -680 62 -909 38 -148 80 -261 151 -404 196 -396
528 -689 939 -830 89 -31 276 -75 317 -75 l27 0 4 -852 c4 -944 2 -922 72
-1193 192 -745 769 -1359 1585 -1685 288 -115 603 -191 960 -232 148 -16 638
-17 785 0 755 86 1374 363 1830 817 368 367 593 820 671 1355 14 98 17 235 21
953 l5 837 -291 0 -291 0 0 -742 c0 -409 -5 -803 -10 -876 -35 -459 -202 -837
-510 -1156 -182 -189 -336 -299 -585 -421 -229 -112 -441 -179 -705 -224 -373
-64 -854 -52 -1225 30 -980 217 -1640 881 -1725 1734 -7 72 -10 376 -8 884 l3
774 85 17 c245 50 443 140 639 289 432 331 715 838 770 1380 6 58 11 333 11
627 l0 524 -625 0 -625 0 0 -260 0 -260 365 0 365 0 0 -257 c0 -337 -17 -481
-77 -661 -86 -261 -259 -504 -468 -659 -93 -69 -241 -146 -353 -182 -273 -89
-594 -86 -854 9 -341 124 -601 405 -727 785 -67 201 -74 257 -78 633 l-5 332
366 0 366 0 0 260 0 260 -621 0 -620 0 4 -622z"/>
<path d="M10640 3975 l0 -2705 290 0 290 0 0 1228 c0 1349 -1 1321 61 1507
132 395 463 653 893 696 201 21 417 -16 579 -97 101 -51 152 -88 228 -166 141
-142 235 -346 269 -583 6 -43 10 -548 10 -1327 l0 -1258 290 0 290 0 0 1328
c0 1522 2 1472 -87 1747 -149 461 -519 778 -1018 871 -139 26 -471 27 -598 1
-382 -77 -680 -286 -875 -612 l-42 -70 0 1073 0 1072 -290 0 -290 0 0 -2705z"/>
<path d="M18923 4363 c3 -2086 5 -2327 20 -2408 49 -271 145 -470 279 -575
107 -85 312 -172 486 -207 109 -21 427 -24 515 -5 l57 13 0 263 c0 144 -2 265
-5 268 -3 2 -33 -1 -67 -8 -87 -19 -307 -18 -387 1 -165 39 -251 132 -298 320
-16 65 -17 229 -20 2363 l-3 2292 -290 0 -291 0 4 -2317z"/>
<path d="M28599 5643 c0 -807 -3 -1034 -12 -1019 -226 358 -586 578 -1072 653
-153 24 -471 23 -620 -1 -513 -82 -934 -333 -1261 -751 -285 -366 -424 -793
-424 -1303 0 -188 11 -309 45 -477 121 -601 525 -1131 1070 -1400 502 -248
1189 -260 1684 -29 210 98 414 268 534 443 l57 85 0 -287 0 -287 290 0 290 0
0 2705 0 2705 -290 0 -290 0 -1 -1037z m-1089 -912 c286 -58 492 -171 710
-390 232 -232 350 -450 417 -770 24 -112 27 -149 27 -336 1 -222 -6 -285 -51
-460 -121 -470 -480 -862 -924 -1009 -159 -53 -238 -67 -422 -73 -185 -6 -294
4 -444 43 -474 122 -852 520 -983 1034 -62 243 -68 586 -14 848 54 263 184
513 369 710 214 227 477 368 780 417 124 20 405 13 535 -14z"/>
<path d="M16185 5289 c-494 -46 -895 -271 -1209 -678 l-57 -75 28 -22 c15 -12
105 -85 198 -162 l170 -141 59 67 c281 316 570 462 946 479 455 20 781 -141
882 -435 31 -91 31 -246 0 -347 -75 -248 -250 -315 -1012 -385 -124 -12 -270
-28 -325 -36 -681 -101 -1094 -355 -1251 -769 -46 -123 -65 -228 -71 -400 -4
-125 -2 -182 11 -258 85 -500 474 -846 1066 -948 221 -38 546 -35 795 7 340
57 603 179 806 374 46 43 84 78 84 77 1 -1 10 -33 20 -71 55 -210 180 -334
370 -367 133 -23 378 6 474 56 l31 16 0 209 0 210 -93 0 c-153 0 -227 33 -269
118 l-23 47 -6 1190 c-6 1161 -6 1192 -27 1285 -52 239 -136 401 -289 560
-285 299 -775 449 -1308 399z m1042 -2464 c-4 -351 -6 -386 -26 -460 -96 -353
-369 -568 -826 -651 -118 -21 -443 -30 -557 -15 -139 19 -246 49 -355 102
-174 84 -285 215 -329 389 -23 90 -15 280 15 364 71 199 221 318 505 401 139
40 285 63 606 95 541 55 807 114 931 206 l34 25 3 -38 c2 -21 2 -209 -1 -418z"/>
<path d="M22365 5294 c-241 -24 -365 -48 -536 -104 -561 -184 -1060 -655
-1270 -1198 -182 -475 -179 -1085 8 -1557 97 -245 227 -445 421 -646 351 -367
801 -582 1312 -628 691 -64 1320 166 1770 646 271 289 435 616 511 1018 31
158 38 511 15 693 -60 471 -268 877 -618 1207 -319 301 -699 486 -1128 550
-103 15 -406 27 -485 19z m479 -563 c347 -71 624 -239 855 -517 229 -276 331
-580 331 -986 1 -307 -48 -525 -170 -756 -71 -135 -151 -243 -260 -352 -215
-213 -476 -350 -775 -406 -138 -26 -478 -26 -615 -1 -410 77 -775 328 -990
683 -94 154 -156 324 -192 523 -29 165 -29 448 1 615 64 360 242 663 526 896
226 185 440 273 790 324 79 11 403 -4 499 -23z"/>
<path d="M31805 5294 c-551 -46 -987 -251 -1365 -640 -309 -318 -478 -659
-547 -1104 -24 -159 -24 -500 1 -660 67 -433 240 -787 536 -1094 339 -353 717
-548 1200 -623 161 -24 520 -24 680 1 229 36 412 92 606 187 512 249 915 724
1063 1251 144 513 97 1097 -124 1538 -237 473 -682 864 -1176 1033 -108 37
-258 74 -379 92 -105 15 -400 27 -495 19z m486 -563 c199 -40 401 -126 553
-236 335 -240 538 -557 614 -960 24 -129 24 -504 -1 -630 -61 -308 -193 -564
-400 -776 -208 -212 -453 -345 -757 -411 -92 -19 -134 -22 -330 -23 -248 0
-321 10 -500 67 -223 71 -406 183 -581 358 -255 254 -390 544 -428 919 -32
312 15 620 134 878 120 259 404 552 662 682 150 75 300 122 473 147 133 19
433 11 561 -15z"/>
<path d="M36483 5290 c-423 -41 -789 -187 -1106 -439 -441 -351 -700 -812
-767 -1361 -15 -126 -12 -431 5 -567 78 -594 390 -1090 904 -1434 354 -238
793 -354 1266 -336 508 20 910 166 1257 456 51 43 104 90 117 104 23 25 23 26
5 49 -51 64 -328 378 -334 378 -3 0 -19 -14 -36 -31 -16 -17 -68 -62 -115 -99
-280 -217 -595 -320 -984 -320 -443 0 -794 140 -1085 431 -294 294 -431 646
-431 1104 0 404 104 714 332 989 289 348 649 525 1109 543 447 17 816 -106
1127 -376 46 -39 85 -71 87 -71 8 0 346 392 346 401 0 5 -42 45 -94 90 -309
268 -637 416 -1050 474 -136 19 -428 27 -553 15z"/>
</g>
</svg>
