<?xml version="1.0" encoding="UTF-8" standalone="no"?>
<svg
   xmlns:dc="http://purl.org/dc/elements/1.1/"
   xmlns:cc="http://creativecommons.org/ns#"
   xmlns:rdf="http://www.w3.org/1999/02/22-rdf-syntax-ns#"
   xmlns:svg="http://www.w3.org/2000/svg"
   xmlns="http://www.w3.org/2000/svg"
   xmlns:sodipodi="http://sodipodi.sourceforge.net/DTD/sodipodi-0.dtd"
   xmlns:inkscape="http://www.inkscape.org/namespaces/inkscape"
   version="1.1"
   x="0"
   y="0"
   width="158"
   height="66"
   viewBox="0 0 174.97 72.11"
   xml:space="preserve"
   id="svg2"
   inkscape:version="0.91 r13725"
   sodipodi:docname="logo-lippo.svg"><metadata
     id="metadata16"><rdf:RDF><cc:Work
         rdf:about=""><dc:format>image/svg+xml</dc:format><dc:type
           rdf:resource="http://purl.org/dc/dcmitype/StillImage" /></cc:Work></rdf:RDF></metadata><defs
     id="defs14" /><sodipodi:namedview
     pagecolor="#ffffff"
     bordercolor="#666666"
     borderopacity="1"
     objecttolerance="10"
     gridtolerance="10"
     guidetolerance="10"
     inkscape:pageopacity="0"
     inkscape:pageshadow="2"
     inkscape:window-width="1366"
     inkscape:window-height="705"
     id="namedview12"
     showgrid="false"
     inkscape:zoom="2.2531646"
     inkscape:cx="79"
     inkscape:cy="33"
     inkscape:window-x="-8"
     inkscape:window-y="-8"
     inkscape:window-maximized="1"
     inkscape:current-layer="g4" /><g
     fill="#FFF"
     id="g4"><path
       clip-path="url(#SVGID_2_)"
       fill-rule="evenodd"
       clip-rule="evenodd"
       d="M120.23 13.81l-17.89 24.2c3.34 3.5 10.5 5.3 15.7 4.53 11.07-1.79 17.35-10.2 16.88-20.21-.35-8.63-8.02-18.23-14.72-8.53M100.48 40c-10.21 9.74-23.62 6.55-31.02.54-8.34 7.74-21.28 7.41-29.5-4.93-6.73-10.08-4.6-23.16 5.48-30.96 8.47-6.61 20.94-5.73 29.4.93C83.57-2.76 99-.63 106.4 5.11c6.93-7.48 18.47-5.47 24.9 1.1 6.88 6.9 9.7 18.7 4.3 27.89-11.57 19.5-32.5 9-35.1 5.9m-29.52-2.5c3.4 2.7 8.3 3.3 11.96-1.13l6.2-7.54-6.47-7.87L70.98 37.5zM91 26.15l13.14-18.21c-5.47-3.48-10.2-2.01-13.81 2.74l-5.48 7.26L91 26.15zm-36.69 5.94L72.25 7.9C68.92 4.5 61.6 2.5 56.4 3.4 45.36 5.1 39.2 13.5 39.6 23.55c.29 8.65 8 18.25 14.7 8.55"
       id="path6"
       style="fill:#ff0000" /><path
       clip-path="url(#SVGID_2_)"
       d="M3.8 53.7h5.6L6.5 67.3h8.8l-1 4.5H0zM20.1 53.7h5.6l-3.8 18.1h-5.6zM29.08 53.66h9.31c2.04 0 3.4.5 4.2 1.45.82 1 1 2.4.7 4.1-.39 1.83-1.25 3.26-2.56 4.29-1.32 1.04-3.11 1.55-5.38 1.55H32.3l-1.43 6.73h-5.61l3.82-18.12zm4 7.74h1.36c1.09 0 1.89-.17 2.4-.56.51-.38.84-.85.96-1.44.12-.57.03-1.06-.27-1.46-.29-.4-.95-.59-2-.59h-1.6l-.85 4.05zM46.46 53.66h9.3c2.03 0 3.4.5 4.2 1.45.81 1 1 2.4.6 4.1-.38 1.83-1.23 3.26-2.54 4.29-1.32 1.04-3.11 1.55-5.37 1.55h-3.08l-1.42 6.73h-5.61l3.92-18.12zm3.98 7.74h1.37c1.07 0 1.88-.17 2.39-.56.52-.38.84-.85.96-1.44.12-.57.03-1.06-.26-1.46-.29-.4-.96-.59-2.01-.59h-1.6l-.85 4.05zM61.47 62.74c.62-2.96 1.93-5.25 3.93-6.9 2-1.66 4.47-2.48 7.4-2.48 3.02 0 5.2.8 6.5 2.43 1.29 1.6 1.6 3.9 1 6.8-.44 2.13-1.17 3.86-2.17 5.22-.99 1.36-2.25 2.41-3.76 3.2-1.51.76-3.26 1.13-5.28 1.13-2.04 0-3.66-.33-4.88-.97-1.2-.66-2.07-1.69-2.61-3.1-.54-1.47-.6-3.17-.1-5.37m5.57.08c-.39 1.82-.33 3.1.2 3.94.51.8 1.4 1.2 2.5 1.2 1.19 0 2.22-.39 3.04-1.18.83-.77 1.45-2.17 1.89-4.2.35-1.71.27-2.96-.25-3.75-.52-.78-1.37-1.18-2.55-1.18-1.13 0-2.13.4-2.98 1.2-.85.79-1.42 2.09-1.82 3.99M94.48 65.21l.8-3.68h8.44l-1.59 7.55c-1.83 1.09-3.44 1.84-4.77 2.2-1.32.4-2.84.6-4.54.6-2.09 0-3.73-.36-4.9-1.08-1.16-.71-1.97-1.78-2.39-3.19-.44-1.42-.46-3.05-.07-4.87.4-1.93 1.16-3.61 2.26-5.04 1.09-1.42 2.49-2.51 4.18-3.24 1.31-.58 2.99-.86 5.01-.86 1.95 0 3.4.2 4.3.5.89.4 1.6.9 2.1 1.65.48.7.8 1.7.8 2.82l-5.46.94c-.08-.65-.34-1.17-.78-1.52-.44-.35-1.08-.54-1.88-.54-1.2 0-2.24.43-3.12 1.26-.89.83-1.52 2.15-1.9 3.94-.41 1.92-.35 3.3.2 4.1.55.8 1.5 1.2 2.7 1.23.6 0 1.22-.08 1.8-.25.6-.18 1.29-.5 2.08-.91l.36-1.66h-3.63zM102.85 71.62l3.73-17.69h9.1c1.68 0 3 .1 3.8.4.83.3 1.4.8 1.8 1.62.39.8.5 1.7.2 2.88-.21.98-.59 1.82-1.16 2.53-.58.72-1.27 1.29-2.1 1.7-.52.29-1.21.53-2.08.71.62.2 1.1.4 1.3.65.15.1.4.5.7.93.27.5.5.8.5 1.1l1.56 5.12h-6.18l-1.77-5.4c-.22-.69-.44-1.15-.69-1.36-.34-.27-.76-.42-1.26-.42h-.48l-1.51 7.18h-5.46zm7.71-10.51h2.28c.27 0 .75-.08 1.5-.24.38-.08.72-.26 1-.55.29-.31.48-.65.55-1.03.13-.58.04-1.02-.26-1.32-.29-.31-.94-.46-1.92-.46h-2.41l-.74 3.6z"
       id="path8"
       style="fill:#000000" /><path
       clip-path="url(#SVGID_2_)"
       d="M121.14 62.79c.6-2.87 1.88-5.13 3.83-6.74 1.95-1.6 4.36-2.41 7.22-2.41 2.95 0 5 .8 6.3 2.37 1.26 1.6 1.6 3.8 1 6.64-.44 2.06-1.14 3.75-2.11 5.08s-2.2 2.36-3.67 3.1c-1.47.73-3.18 1.11-5.14 1.11-2 0-3.57-.33-4.75-.96-1.18-.63-2.02-1.64-2.55-3.02-.52-1.36-.57-3.06-.17-5.16m5.5.02c-.37 1.78-.31 3.1.2 3.86.5.8 1.3 1.2 2.5 1.16 1.18 0 2.16-.38 2.96-1.14.81-.77 1.43-2.14 1.85-4.11.34-1.66.27-2.89-.25-3.66-.52-.76-1.34-1.15-2.49-1.15-1.1 0-2.06.39-2.88 1.2-.91.72-1.49 2.02-1.89 3.82M153.95 53.93h5.45l-2.23 10.54c-.23 1.04-.58 2.02-1.11 3-.52.93-1.2 1.74-2.04 2.44-.84.69-1.69 1.17-2.51 1.46-1.14.4-2.46.6-3.94.6-.87 0-1.79-.06-2.78-.18-.99-.13-1.8-.36-2.41-.72-.61-.35-1.11-.86-1.55-1.51-.42-.68-.67-1.35-.73-2.05-.11-1.12-.07-2.12.12-2.98l2.22-10.54h5.44l-2.27 10.79c-.2.97-.09 1.7.3 2.26.42.5 1.1.8 2 .81.94 0 1.74-.26 2.38-.8.66-.53 1.08-1.29 1.28-2.27l2.38-10.85zM160.93 53.93h9.09c1.98 0 3.4.5 4.1 1.42.8.9 1 2.3.6 4-.38 1.77-1.2 3.18-2.5 4.17-1.29 1.02-3.03 1.52-5.23 1.52h-2.98l-1.39 6.56h-5.5l3.81-17.67zm3.91 7.55h1.33c1.06 0 1.83-.18 2.33-.55.51-.36.82-.83.94-1.4.12-.55.03-1.02-.25-1.41-.29-.38-.95-.58-1.98-.58h-1.55l-.82 3.94z"
       id="path10"
       style="fill:#000000" /></g></svg>